<?xml version="1.0" standalone="no"?>
<!DOCTYPE svg PUBLIC "-//W3C//DTD SVG 20010904//EN"
 "http://www.w3.org/TR/2001/REC-SVG-20010904/DTD/svg10.dtd">
<svg version="1.0" xmlns="http://www.w3.org/2000/svg"
 width="512.000000pt" height="512.000000pt" viewBox="0 0 512.000000 512.000000"
 preserveAspectRatio="xMidYMid meet">

<g transform="translate(0.000000,512.000000) scale(0.100000,-0.100000)"
fill="#000000" stroke="none">
<path d="M1892 4645 c-43 -13 -95 -48 -133 -88 -12 -12 -97 -174 -190 -359
l-169 -338 -99 0 -99 0 -4 88 c-5 105 -28 162 -88 222 -76 76 -109 85 -310 85
-201 0 -234 -9 -310 -85 -60 -60 -83 -118 -88 -221 l-4 -87 -87 -4 c-103 -5
-161 -28 -221 -88 -23 -23 -52 -63 -64 -89 l-21 -46 0 -1475 0 -1475 21 -46
c28 -60 93 -125 153 -153 l46 -21 2335 0 2335 0 46 21 c60 28 125 93 153 153
l21 46 0 1475 0 1475 -21 46 c-28 60 -93 125 -153 153 -45 21 -56 21 -634 24
l-587 3 -169 337 c-180 359 -200 390 -291 435 -45 22 -46 22 -685 24 -514 2
-648 -1 -683 -12z m1302 -206 c18 -14 76 -119 167 -300 l139 -279 -940 0 -940
0 139 279 c91 181 149 286 167 300 27 21 31 21 634 21 603 0 607 0 634 -21z
m-2227 -411 c23 -24 28 -38 31 -98 l4 -70 -202 0 -202 0 4 69 c4 72 20 103 63
122 11 5 77 8 147 6 124 -2 128 -3 155 -29z m3920 -401 l28 -27 3 -270 3 -270
-713 0 -712 0 -51 49 c-159 155 -419 286 -665 333 -84 16 -356 16 -440 0 -159
-31 -358 -109 -484 -190 -58 -37 -166 -124 -200 -161 l-30 -31 -713 0 -714 0
3 269 c3 253 4 270 23 291 11 12 29 26 40 31 11 4 1049 7 2307 6 l2288 -2 27
-28z m-2189 -783 c44 -8 118 -35 172 -61 81 -39 108 -58 182 -133 72 -72 94
-103 131 -181 102 -209 102 -409 0 -618 -37 -78 -59 -109 -131 -181 -74 -75
-101 -94 -182 -133 -211 -102 -409 -102 -620 0 -81 39 -108 58 -182 133 -72
72 -94 103 -131 181 -50 102 -77 212 -77 309 0 97 27 207 77 309 37 78 59 109
131 181 74 74 101 94 182 133 153 74 292 93 448 61z m-1023 -1633 c159 -155
419 -286 665 -333 84 -16 356 -16 440 0 159 31 358 109 484 190 58 37 166 124
200 161 l30 31 713 0 714 0 -3 -270 -3 -270 -28 -27 -27 -28 -2300 0 -2300 0
-27 28 -28 27 -3 270 -3 270 713 0 712 0 51 -49z"/>
<path d="M2194 4226 c-46 -46 -46 -86 0 -132 l34 -34 332 0 332 0 34 34 c25
25 34 43 34 66 0 23 -9 42 -34 66 l-34 34 -332 0 -332 0 -34 -34z"/>
<path d="M3954 3426 c-24 -24 -34 -43 -34 -66 0 -23 10 -41 34 -66 25 -24 43
-34 66 -34 23 0 42 10 66 34 25 25 34 43 34 66 0 23 -9 42 -34 66 -24 25 -43
34 -66 34 -23 0 -41 -9 -66 -34z"/>
<path d="M4354 3426 c-24 -24 -34 -43 -34 -66 0 -23 10 -41 34 -66 l34 -34
132 0 132 0 34 34 c25 25 34 43 34 66 0 23 -9 42 -34 66 l-34 34 -132 0 -132
0 -34 -34z"/>
<path d="M2443 2645 c-182 -49 -320 -189 -368 -372 -23 -89 -20 -137 13 -173
17 -19 40 -33 63 -36 30 -5 41 -1 68 22 26 24 33 41 42 94 14 87 38 139 89
190 51 51 107 77 190 88 80 11 115 43 115 103 0 34 -6 46 -33 70 -37 34 -90
38 -179 14z"/>
</g>
</svg>
